<?xml version="1.0" encoding="utf-8"?>
<!-- Generator: Adobe Illustrator 28.1.0, SVG Export Plug-In . SVG Version: 6.00 Build 0)  -->
<svg version="1.1" id="Capa_1"
	xmlns="http://www.w3.org/2000/svg"
	xmlns:xlink="http://www.w3.org/1999/xlink" x="0px" y="0px" viewBox="0 0 512 512" style="enable-background:new 0 0 512 512;" xml:space="preserve">
	<style type="text/css">
	.st0{fill:#FFFFFF;}
	.st1{fill:none;stroke:#0065BD;stroke-width:15;stroke-linecap:round;stroke-linejoin:round;}
	.st2{fill:none;stroke:#0065BD;stroke-width:14.7229;stroke-linecap:round;stroke-linejoin:round;}
	.st3{fill:#0065BD;}
	</style>
	<path class="st0" d="M50,0h412c27.6,0,50,22.4,50,50v412c0,27.6-22.4,50-50,50H50c-27.6,0-50-22.4-50-50V50C0,22.4,22.4,0,50,0z"/>
	<path class="st1" d="M154.2,247.2H64.5c-10,0-18.1,8.1-18.1,18.1v138.8c0,10,8.1,18.1,18.1,18.1H81l30.8,38.3
	c7.1,7.1,18.5,7.1,25.6,0l31.2-38.3H308c10,0,18.1-8.1,18.1-18.1v-77.4"/>
	<line class="st1" x1="89.7" y1="290.9" x2="167.5" y2="290.9"/>
	<line class="st1" x1="89.7" y1="334.7" x2="238.4" y2="334.7"/>
	<line class="st1" x1="89.7" y1="378.6" x2="238.4" y2="378.6"/>
	<path class="st2" d="M225,290.9c-12.6,0-23.9-6.5-30.3-17.4c-6.4-10.9-6.4-24-0.1-35L295,63.5c6.3-11,17.6-17.6,30.3-17.6
	c0,0,0.1,0,0.1,0c12.6,0,23.9,6.5,30.3,17.4L457,237.7c6.4,10.9,6.4,24,0.1,35c-6.3,11-17.6,17.6-30.3,17.6l-201.7,0.6
	C225.1,290.9,225.1,290.9,225,290.9z"/>
	<path class="st3" d="M307.8,240.5c-0.1-10,7.6-18,18.2-18.1c10.4-0.1,17.9,7.8,18,17.8c0.1,10-7.3,18.2-17.7,18.3
	C315.6,258.6,307.9,250.5,307.8,240.5z"/>
	<polygon class="st3" points="309.1,101.9 342.7,101.7 337.7,207.7 315.3,207.9 "/>

</svg>
