<?xml version="1.0" encoding="utf-8"?>
<!-- Generator: Adobe Illustrator 28.0.0, SVG Export Plug-In . SVG Version: 6.00 Build 0)  -->
<svg version="1.1" id="Capa_1"
	xmlns="http://www.w3.org/2000/svg"
	xmlns:xlink="http://www.w3.org/1999/xlink" x="0px" y="0px" viewBox="0 0 512 512" style="enable-background:new 0 0 512 512;" xml:space="preserve">
	<style type="text/css">
	.st0{fill:#FFFFFF;}
	.st1{fill:#2071C5;}
	.st2{fill:none;stroke:#FFFFFF;stroke-width:31.1719;stroke-linecap:round;stroke-miterlimit:10;}
	.st3{fill:#29F5CA;}
	.st4{fill:#1F2D52;}
	.st5{fill:#F27F22;}
	.st6{fill:#333333;}
	.st7{fill:#FBB034;}
	.st8{fill-rule:evenodd;clip-rule:evenodd;fill:#32BDB5;}
	.st9{fill-rule:evenodd;clip-rule:evenodd;fill:#4B4F54;}
	.st10{fill:#0065BD;}
	.st11{fill:#1A1A27;}
	.st12{fill-rule:evenodd;clip-rule:evenodd;fill:#0065BD;}
	.st13{fill:none;stroke:#2071C5;stroke-width:31.1719;stroke-linecap:round;stroke-miterlimit:10;}
	.st14{fill:#32BDB5;}
	.st15{fill-rule:evenodd;clip-rule:evenodd;fill:#FFFFFF;}
	</style>
	<path class="st0" d="M462,512H50c-27.6,0-50-22.4-50-50V50C0,22.4,22.4,0,50,0h412c27.6,0,50,22.4,50,50v412
	C512,489.6,489.6,512,462,512z"/>
	<g>
		<path class="st7" d="M144.4,46C90,46,46,90,46,144.4v317.9c0,2.1,1.7,3.8,3.8,3.8h317.9c54.3,0,98.4-44,98.4-98.4c0,0,0,0,0,0V49.3
		c0-1.8-1.5-3.3-3.3-3.3H144.4z"/>
		<polygon class="st0" points="167.8,228.3 137.3,232.3 127.9,155.9 205.6,146.5 209,176.9 162.4,183 	"/>
		<polygon class="st0" points="365.2,203.9 334.8,208 329.4,162.7 282.7,168.1 279.3,137.7 356.4,128.2 	"/>
		<polygon class="st0" points="384.1,356.1 305.7,365.5 301.6,335.1 349.6,329.7 343.6,281 374,277 	"/>
		<polygon class="st0" points="233.4,374.3 155.6,383.8 146.1,304.7 176.6,300.6 182.6,350 229.3,343.9 	"/>
	</g>
</svg>
