<?xml version="1.0" encoding="utf-8"?>
<!-- Generator: Adobe Illustrator 28.0.0, SVG Export Plug-In . SVG Version: 6.00 Build 0)  -->
<svg version="1.1" id="Capa_1" xmlns="http://www.w3.org/2000/svg" xmlns:xlink="http://www.w3.org/1999/xlink" x="0px" y="0px"
	 viewBox="0 0 512 512" style="enable-background:new 0 0 512 512;" xml:space="preserve">
<style type="text/css">
	.st0{fill:#FFFFFF;}
	.st1{fill:#2071C5;}
	.st2{fill:none;stroke:#FFFFFF;stroke-width:31.1719;stroke-linecap:round;stroke-miterlimit:10;}
	.st3{fill:#29F5CA;}
	.st4{fill:#1F2D52;}
	.st5{fill:#F27F22;}
	.st6{fill:#333333;}
	.st7{fill:#FBB034;}
	.st8{fill-rule:evenodd;clip-rule:evenodd;fill:#32BDB5;}
	.st9{fill-rule:evenodd;clip-rule:evenodd;fill:#4B4F54;}
	.st10{fill:#0065BD;}
	.st11{fill:#1A1A27;}
	.st12{fill-rule:evenodd;clip-rule:evenodd;fill:#0065BD;}
	.st13{fill:none;stroke:#2071C5;stroke-width:31.1719;stroke-linecap:round;stroke-miterlimit:10;}
	.st14{fill:#32BDB5;}
	.st15{fill-rule:evenodd;clip-rule:evenodd;fill:#FFFFFF;}
</style>
<path class="st14" d="M462,512H50c-27.6,0-50-22.4-50-50V50C0,22.4,22.4,0,50,0h412c27.6,0,50,22.4,50,50v412
	C512,489.6,489.6,512,462,512z"/>
<g id="layer1_00000078725782635454631920000000785918894196640137_" transform="translate(-2.8537205,-213.80848)">
	<g id="g461_00000073706673908079019630000003991031172523412899_" transform="translate(7.8611892,-227.63432)">
		<path id="path428_00000060720974040484931280000009648912458101825936_" class="st15" d="M265.8,609.6h-29.6c-2,0-3.6-1.6-3.6-3.7
			V491.1c0-2,1.6-3.7,3.6-3.7h29.6c2,0,3.6,1.6,3.6,3.7v114.8C269.5,607.9,267.8,609.6,265.8,609.6z"/>
		<path id="path430_00000138551815619193239990000010781919986775338385_" class="st15" d="M328.2,770.1l14.8-25.9
			c1-1.7,3.2-2.4,5-1.4l98.7,57.4c1.7,1,2.3,3.2,1.4,5l-14.8,25.9c-1,1.7-3.2,2.4-5,1.4l-98.7-57.4
			C327.7,774,327.2,771.8,328.2,770.1L328.2,770.1z"/>
		<path id="path432_00000026844225751951111790000001735904600525909635_" class="st15" d="M159,744.2l14.8,25.9c1,1.7,0.4,4-1.4,5
			l-98.7,57.4c-1.7,1-4,0.4-5-1.4L54,805.2c-1-1.7-0.4-4,1.4-5l98.7-57.4C155.8,741.8,158.1,742.4,159,744.2L159,744.2z"/>
		<path id="path434_00000152223526716193061540000015558920286697346996_" class="st15" d="M437.8,634.9l-30.6-53.4
			c-1.8-3.2-5.8-4.3-9-2.4L251,664.6l-147.2-85.6c-3.1-1.9-7.2-0.7-9,2.4l-30.6,53.4c-1.9,3.2-0.7,7.2,2.4,9.1l147.2,85.6v171.2
			c0,3.7,2.9,6.7,6.6,6.7h61.2c3.6,0,6.6-2.9,6.6-6.7V729.6L435.3,644C438.5,642.2,439.6,638.1,437.8,634.9z"/>
	</g>
</g>
</svg>
