<?xml version="1.0" encoding="utf-8"?>
<!-- Generator: Adobe Illustrator 28.0.0, SVG Export Plug-In . SVG Version: 6.00 Build 0)  -->
<svg version="1.1" id="Capa_1" xmlns="http://www.w3.org/2000/svg" xmlns:xlink="http://www.w3.org/1999/xlink" x="0px" y="0px"
	 viewBox="0 0 512 512" style="enable-background:new 0 0 512 512;" xml:space="preserve">
<style type="text/css">
	.st0{fill:#FFFFFF;}
	.st1{fill:#2071C5;}
	.st2{fill:none;stroke:#FFFFFF;stroke-width:31.1719;stroke-linecap:round;stroke-miterlimit:10;}
	.st3{fill:#29F5CA;}
	.st4{fill:#1F2D52;}
	.st5{fill:#F27F22;}
	.st6{fill:#333333;}
	.st7{fill:#FBB034;}
	.st8{fill-rule:evenodd;clip-rule:evenodd;fill:#32BDB5;}
	.st9{fill-rule:evenodd;clip-rule:evenodd;fill:#4B4F54;}
	.st10{fill:#0065BD;}
	.st11{fill:#1A1A27;}
	.st12{fill-rule:evenodd;clip-rule:evenodd;fill:#0065BD;}
	.st13{fill:none;stroke:#2071C5;stroke-width:31.1719;stroke-linecap:round;stroke-miterlimit:10;}
	.st14{fill:#32BDB5;}
	.st15{fill-rule:evenodd;clip-rule:evenodd;fill:#FFFFFF;}
</style>
<path class="st0" d="M462,512H50c-27.6,0-50-22.4-50-50V50C0,22.4,22.4,0,50,0h412c27.6,0,50,22.4,50,50v412
	C512,489.6,489.6,512,462,512z"/>
<path class="st10" d="M243.9,351.6h23.2c9.6,0,18.1,4.4,23.7,11.4c41.9-0.1,73.6-10.3,90-21.7c2.9-10.7,4.4-22,4.4-33.7v-50.4
	c0-33.3-12.6-63.6-33.3-86.5c-11.8-13.1-26.3-23.7-42.5-31.1c-16.3-7.4-34.3-11.5-53.3-11.5c-38.4,0-72.9,16.8-96.6,43.4
	c-20.2,22.8-32.5,52.8-32.5,85.7v50.4c0,30.9,10.9,59.3,29,81.6c23.7,29,59.7,47.6,100.1,47.6c37.1,0,70.6-15.7,94.2-40.8
	c0.6-0.7,1.2-1.3,1.8-2c-18.2,4.4-38.9,6.9-61.2,7c-5.6,6.9-14.1,11.4-23.7,11.4h-23.2c-16.7,0-30.4-13.6-30.4-30.4
	S227.2,351.6,243.9,351.6z M102.5,337.9L102.5,337.9c6.2,0,11.2-5,11.2-11.2v-85.9c2.2-76.7,65.2-138.3,142.4-138.3
	c76,0,138.3,59.9,142.3,134.9v89.4c0,3.1,1.2,5.8,3.2,7.9c-10.9,22.1-57.6,39.3-111.6,39.3h-5.1c-3.1-6.7-9.9-11.4-17.7-11.4h-23.2
	c-10.8,0-19.5,8.7-19.5,19.5s8.7,19.5,19.5,19.5h23.2c7.9,0,14.6-4.7,17.7-11.4h5.1c65.7,0,117.1-22,128.1-52.9
	c27.2-4.1,48-27.5,48-55.8v-12.4c0-26.6-18.4-48.8-43.2-54.8c-14.5-78.9-83.7-139-166.8-139c-83,0-152.3,60-166.8,138.9
	C64.5,220.1,46,242.4,46,269.1v12.4C46,312.6,71.3,337.9,102.5,337.9z"/>
</svg>
