<?xml version="1.0" encoding="utf-8"?>
<!-- Generator: Adobe Illustrator 28.0.0, SVG Export Plug-In . SVG Version: 6.00 Build 0)  -->
<svg version="1.1" id="Capa_1" xmlns="http://www.w3.org/2000/svg" xmlns:xlink="http://www.w3.org/1999/xlink" x="0px" y="0px"
	 viewBox="0 0 500 132.6" style="enable-background:new 0 0 500 132.6;" xml:space="preserve">
<style type="text/css">
	.st0{display:none;}
	.st1{display:inline;fill:#3C3C3B;}
	.st2{fill:#FFFFFF;}
</style>
<g id="Capa_2_00000139980210461594359170000005484519720858712225_" class="st0">
	<rect x="60.9" y="37.9" class="st1" width="113.4" height="56.7"/>
</g>
<g id="Capa_1_00000112606361766625164000000012930076904622224048_">
	<g>
		<path class="st2" d="M132.6,66.3c0,36.4-29.9,66.3-66.3,66.3S0,102.7,0,66.3S29.9,0,66.3,0S132.6,29.9,132.6,66.3z M109.2,91.3
			c0-0.5-0.5-0.5-0.5-0.5c-6-0.5-12-1.1-17.9-1.1c-16.3,0-32.1,2.2-46.7,6.5c-6.5,2.2-13.6,3.3-20.7,4.3c-0.5,0-0.5,0.5-0.5,0.5
			c0,0.5,0.5,0.5,0.5,0.5c6.5,1.6,12.5,1.6,18.5,1.6c15.8,0,31.5-2.2,46.2-6.5c6.5-2.2,13.6-3.8,21.2-4.9
			C109.2,92.4,109.2,91.8,109.2,91.3 M109.2,71.2c0-0.5-0.5-0.5-0.5-0.5c-6-0.5-12-1.1-17.9-1.1c-16.3,0-32.1,2.2-46.7,6.5
			c-6.5,2.2-13.6,3.3-20.7,4.3c-0.5,0-0.5,0.5-0.5,0.5c0,0.5,0.5,0.5,0.5,0.5c6,0.5,12,1.1,17.9,1.1c15.8,0,31.5-2.2,46.2-6.5
			c6.5-2.2,13.6-3.8,21.2-4.9C109.2,71.7,109.2,71.7,109.2,71.2 M109.2,50.5c0-0.5-0.5-0.5-0.5-0.5c-6-0.5-12-1.1-17.9-1.1
			c-16.3,0-32.1,2.2-46.7,6.5c-6.5,2.2-13.6,3.3-20.7,4.3c-0.5,0-0.5,0.5-0.5,0.5c0,0.5,0.5,0.5,0.5,0.5c6,0.5,12,1.1,17.9,1.1
			c15.8,0,31.5-2.2,46.2-6.5c6.5-2.2,13.6-3.8,21.2-4.9C109.2,51.6,109.2,51.1,109.2,50.5 M109.2,30.4c0-0.5-0.5-0.5-0.5-0.5
			c-6-0.5-12-1.1-17.9-1.1c-16.3,0-32.1,2.2-46.7,6.5c-6.5,1.6-13,3.3-20.1,4.3c-0.5,0-0.5,0.5-0.5,0.5c0,0.5,0.5,0.5,0.5,0.5
			c6,0.5,12,1.1,17.9,1.1c15.8,0,31.5-2.2,46.2-6.5C94.6,33.2,101.6,31.5,109.2,30.4C109.2,31,109.2,31,109.2,30.4"/>
		<path class="st2" d="M183.7,35.9c-12,0-20.7,7.6-20.7,17.9l0,0c0,11.4,7.6,15.2,19.6,17.9c10.9,2.2,12,4.9,12,7.6l0,0
			c0,3.3-3.3,6-8.7,6c-6.5,0-11.4-2.2-16.8-7.1c0,0-0.5-0.5-1.1-0.5l0,0c-0.5,0-0.5,0-1.1,0.5l-6,7.1c-0.5,0.5-0.5,1.1,0,1.6
			c7.1,6,15.2,9.2,24.5,9.2c13,0,21.7-7.1,21.7-17.9l0,0c0-10.9-7.6-14.7-19-17.9c-11.4-2.7-12.5-4.3-12.5-7.6l0,0
			c0-3.3,3.3-5.4,8.2-5.4s9.2,1.6,14.7,5.4h0.5l0,0c0.5,0,0.5,0,1.1-0.5l5.4-7.6c0.5-0.5,0.5-1.1,0-1.6
			C198.9,38.6,191.8,35.9,183.7,35.9"/>
		<path class="st2" d="M231.5,71.2l7.6-18.5l7.6,17.9h-15.2L231.5,71.2L231.5,71.2z M243.5,36.4h-9.2c-0.5,0-1.1,0.5-1.1,0.5
			l-25,57.1c0,0.5,0,1.1,0,1.1c0,0.5,0.5,0.5,1.1,0.5h10.3c0.5,0,1.1-0.5,1.1-0.5l5.4-13h25l5.4,13c0,0.5,0.5,0.5,1.1,0.5h10.3
			c0.5,0,1.1,0,1.1-0.5s0.5-1.1,0-1.1l-23.9-56.5C244.6,37,244,36.4,243.5,36.4"/>
		<path class="st2" d="M330.4,37h-10.3c-0.5,0-1.1,0-1.1,0.5l-16.3,25l-16.3-25c0-0.5-0.5-0.5-1.1-0.5H275c-0.5,0-1.1,0.5-1.1,1.1
			v56.5c0,0.5,0.5,1.1,1.1,1.1h9.8c0.5,0,1.1-0.5,1.1-1.1V58.7l15.2,22.8c0,0.5,0.5,0.5,1.1,0.5h0.5c0.5,0,1.1,0,1.1-0.5L319,58.7
			v36.4c0,0.5,0.5,1.1,1.1,1.1h9.8c0.5,0,1.1-0.5,1.1-1.1V38C332.1,37.5,331,37,330.4,37"/>
		<path class="st2" d="M351.6,48.4H362c3.8,0,10.9,1.1,10.9,8.7l0,0c0,5.4-4.3,8.7-10.9,8.7h-10.3V48.4H351.6z M362.5,37h-22.3
			c-0.5,0-1.1,0.5-1.1,1.1v56.5c0,0.5,0.5,1.1,1.1,1.1h9.8c0.5,0,1.1-0.5,1.1-1.1V77.7h9.8c14.1,0,23.9-8.2,23.9-20.7l0,0
			C385.3,44.6,376.1,37,362.5,37"/>
		<path class="st2" d="M421.2,85.3c-10.3,0-17.9-8.2-17.9-19l0,0c0-10.9,7.6-18.5,17.9-18.5s17.9,8.2,17.9,19l0,0
			C439.1,77.2,431.5,85.3,421.2,85.3 M421.2,35.9c-17.4,0-31,13.6-31,30.4l0,0c0,17.4,13,30.4,31,30.4c17.4,0,31-13.6,31-30.4l0,0
			C451.6,48.9,438.6,35.9,421.2,35.9"/>
		<path class="st2" d="M469,37h-9.8c-0.5,0-1.1,0.5-1.1,1.1v56.5c0,0.5,0.5,1.1,1.1,1.1h39.7c0.5,0,1.1-0.5,1.1-1.1v-9.2
			c0-0.5-0.5-1.1-1.1-1.1h-28.3V38C470.7,37.5,470.1,37,469,37"/>
	</g>
</g>
</svg>
