<?xml version="1.0" encoding="utf-8"?>
<!-- Generator: Adobe Illustrator 28.0.0, SVG Export Plug-In . SVG Version: 6.00 Build 0)  -->
<svg version="1.1" id="Capa_1" xmlns="http://www.w3.org/2000/svg" xmlns:xlink="http://www.w3.org/1999/xlink" x="0px" y="0px"
	 viewBox="0 0 512 512" style="enable-background:new 0 0 512 512;" xml:space="preserve">
<style type="text/css">
	.st0{fill:#FFFFFF;}
	.st1{fill:#2071C5;}
	.st2{fill:none;stroke:#FFFFFF;stroke-width:31.1719;stroke-linecap:round;stroke-miterlimit:10;}
	.st3{fill:#29F5CA;}
	.st4{fill:#1F2D52;}
	.st5{fill:#F27F22;}
	.st6{fill:#333333;}
	.st7{fill:#FBB034;}
	.st8{fill-rule:evenodd;clip-rule:evenodd;fill:#32BDB5;}
	.st9{fill-rule:evenodd;clip-rule:evenodd;fill:#4B4F54;}
	.st10{fill:#0065BD;}
	.st11{fill:#1A1A27;}
	.st12{fill-rule:evenodd;clip-rule:evenodd;fill:#0065BD;}
	.st13{fill:none;stroke:#2071C5;stroke-width:31.1719;stroke-linecap:round;stroke-miterlimit:10;}
	.st14{fill:#32BDB5;}
	.st15{fill-rule:evenodd;clip-rule:evenodd;fill:#FFFFFF;}
</style>
<path class="st0" d="M462,512H50c-27.6,0-50-22.4-50-50V50C0,22.4,22.4,0,50,0h412c27.6,0,50,22.4,50,50v412
	C512,489.6,489.6,512,462,512z"/>
<g>
	<path class="st5" d="M402.3,402.7v-135c0-28.2-11.7-42.3-35-42.4c-23.3,0-35,14.1-35,42.4v135h-68.7v-135
		c0-28.2-11.5-42.3-34.4-42.4c-23.3,0-35,14.1-35,42.4v135h-68.7v-143c0-29.5,10.2-51.8,30.7-66.9c18-13.5,42.4-20.3,73-20.3
		c31.1,0,54,8,68.7,23.9c12.7-16,35.8-23.9,69.4-23.9c30.7,0,55,6.8,73,20.3c20.5,15.1,30.7,37.4,30.7,66.9v143H402.3z"/>
	<path class="st6" d="M259,162.2l68.3-49.9l-0.9-3C203.2,124.3,147.1,135,41,196.5l1,2.8l8.4,0.1c-0.8,8.5-2.1,29.5-0.4,61.1
		c-11.8,34.1-0.3,57.2,10.5,82.4c1.7-26.2,1.5-54.9-6.5-83.4c-1.7-31.3-0.3-52,0.5-60l70.4,0.7c0,0-0.5,21.3,2.1,41.2
		c62.9,22.1,126.1-0.1,159.6-54.5C277.2,176.4,259,162.2,259,162.2z"/>
</g>
</svg>
