<?xml version="1.0" encoding="utf-8"?>
<!-- Generator: Adobe Illustrator 28.0.0, SVG Export Plug-In . SVG Version: 6.00 Build 0)  -->
<svg version="1.1" id="Capa_1" xmlns="http://www.w3.org/2000/svg" xmlns:xlink="http://www.w3.org/1999/xlink" x="0px" y="0px"
	 viewBox="0 0 512 512" style="enable-background:new 0 0 512 512;" xml:space="preserve">
<style type="text/css">
	.st0{fill:#FFFFFF;}
	.st1{fill:#2071C5;}
	.st2{fill:none;stroke:#FFFFFF;stroke-width:31.1719;stroke-linecap:round;stroke-miterlimit:10;}
	.st3{fill:#29F5CA;}
	.st4{fill:#1F2D52;}
	.st5{fill:#F27F22;}
	.st6{fill:#333333;}
	.st7{fill:#FBB034;}
	.st8{fill-rule:evenodd;clip-rule:evenodd;fill:#32BDB5;}
	.st9{fill-rule:evenodd;clip-rule:evenodd;fill:#4B4F54;}
	.st10{fill:#0065BD;}
	.st11{fill:#1A1A27;}
	.st12{fill-rule:evenodd;clip-rule:evenodd;fill:#0065BD;}
	.st13{fill:none;stroke:#2071C5;stroke-width:31.1719;stroke-linecap:round;stroke-miterlimit:10;}
	.st14{fill:#32BDB5;}
	.st15{fill-rule:evenodd;clip-rule:evenodd;fill:#FFFFFF;}
</style>
<path class="st0" d="M462,512H50c-27.6,0-50-22.4-50-50V50C0,22.4,22.4,0,50,0h412c27.6,0,50,22.4,50,50v412
	C512,489.6,489.6,512,462,512z"/>
<g>
	<path class="st3" d="M332.5,459.6c-12.2,0-23.3-7.4-28-18.7c-4.7-11.3-2.1-24.3,6.5-33l96.8-96.8c11.8-11.8,31-11.8,42.8,0
		c11.8,11.8,11.8,31,0,42.8l-96.8,96.8C348.2,456.4,340.5,459.6,332.5,459.6z"/>
	<path class="st4" d="M256.3,466c-2.7,0-5.3-0.4-7.9-1l-106.2-28.4c-28.3-7.6-50.4-29.8-58.1-58.1L48.8,246.2
		c-7.5-28.3,0.5-58.5,21.2-79.3L166.9,70c20.8-20.7,51-28.8,79.3-21.2l132.3,35.4c28.3,7.6,50.4,29.8,58.1,58.1L465,248.5
		c4.3,16.2-5.3,32.8-21.4,37.1c-16.2,4.3-32.8-5.3-37.1-21.4L378,157.9c-2-7.4-7.8-13.2-15.3-15.3l-132.3-35.4
		c-7.4-2-15.4,0.1-20.8,5.6l-96.8,96.8c-5.4,5.5-7.6,13.4-5.6,20.8l35.4,132.3c2,7.4,7.8,13.2,15.3,15.2l106.2,28.5
		c14.7,3.9,24.2,18.1,22.2,33.2C284.3,454.7,271.4,466,256.3,466L256.3,466z"/>
</g>
</svg>
