<?xml version="1.0" encoding="utf-8"?>
<!-- Generator: Adobe Illustrator 28.0.0, SVG Export Plug-In . SVG Version: 6.00 Build 0)  -->
<svg version="1.1" id="Capa_1" xmlns="http://www.w3.org/2000/svg" xmlns:xlink="http://www.w3.org/1999/xlink" x="0px" y="0px"
	 viewBox="0 0 512 512" style="enable-background:new 0 0 512 512;" xml:space="preserve">
<style type="text/css">
	.st0{fill:#FFFFFF;}
	.st1{fill:#2071C5;}
	.st2{fill:none;stroke:#FFFFFF;stroke-width:31.1719;stroke-linecap:round;stroke-miterlimit:10;}
	.st3{fill:#29F5CA;}
	.st4{fill:#1F2D52;}
	.st5{fill:#F27F22;}
	.st6{fill:#333333;}
	.st7{fill:#FBB034;}
	.st8{fill-rule:evenodd;clip-rule:evenodd;fill:#32BDB5;}
	.st9{fill-rule:evenodd;clip-rule:evenodd;fill:#4B4F54;}
	.st10{fill:#0065BD;}
	.st11{fill:#1A1A27;}
	.st12{fill-rule:evenodd;clip-rule:evenodd;fill:#0065BD;}
	.st13{fill:none;stroke:#2071C5;stroke-width:31.1719;stroke-linecap:round;stroke-miterlimit:10;}
	.st14{fill:#32BDB5;}
	.st15{fill-rule:evenodd;clip-rule:evenodd;fill:#FFFFFF;}
</style>
<path class="st0" d="M462,512H50c-27.6,0-50-22.4-50-50V50C0,22.4,22.4,0,50,0h412c27.6,0,50,22.4,50,50v412
	C512,489.6,489.6,512,462,512z"/>
<g>
	<path class="st12" d="M133.4,77h40.1c-0.2,1.2-0.2,2.5-0.2,3.8v0c0,17.2,14.1,31.3,31.3,31.3l85.8,0c17.2,0,31.3-14.1,31.3-31.3v0
		c0-1.3-0.1-2.6-0.2-3.8h40.1c15.4,0,28,12.6,28,28v148.7l-26.9,26.4v-130c0-0.6-0.5-1.1-1.1-1.1H133.4c-0.6,0-1.1,0.5-1.1,1.1
		v273.2c0,0.6,0.5,1.1,1.1,1.1h228.1c0.6,0,1.1-0.5,1.1-1.1v-25.1l26.9-26.4v51.6c0,15.4-12.6,28-28,28H133.4c-15.4,0-28-12.6-28-28
		V104.9C105.5,89.5,118.1,77,133.4,77L133.4,77L133.4,77z M321.4,371.7l115.5-113.6l8,8.2L329.5,379.9c-1.1,1.1-2.6,1.7-4.1,1.6
		c-1.5,0-2.9-0.6-4-1.7l0,0c-1.1-1.1-1.6-2.6-1.6-4.1C319.8,374.3,320.3,372.8,321.4,371.7L321.4,371.7L321.4,371.7z M457.3,278.8
		l-8-8.2L333.8,384.2c-1.1,1.1-1.7,2.6-1.7,4c0,1.5,0.5,2.9,1.6,4.1l0,0c1.1,1.1,2.6,1.7,4,1.7c1.5,0,2.9-0.5,4.1-1.6L457.3,278.8
		L457.3,278.8z M432.6,253.7l-8.1-8.2L309.1,359.1c-1.1,1.1-1.7,2.6-1.7,4c0,1.5,0.5,2.9,1.6,4.1c1.1,1.1,2.6,1.7,4,1.7
		c1.5,0,2.9-0.5,4.1-1.6L432.6,253.7L432.6,253.7z M478.7,243.8L478.7,243.8c-0.1-0.1-0.1-0.1-0.1-0.2c0,0-0.1-0.1-0.1-0.1l-0.1-0.1
		v0c0,0-0.1-0.1-0.1-0.1v0c-0.1-0.1-0.1-0.1-0.2-0.2l-0.5-0.5L461,225.8l-0.5-0.5c0,0-0.1-0.1-0.2-0.2v0c-0.1,0-0.1-0.1-0.2-0.1v0
		l-0.1-0.1c0,0-0.1-0.1-0.1-0.1c0,0-0.1-0.1-0.1-0.1l0,0c-3.2-2.9-7.3-4.4-11.3-4.5c-1.2,0-2.3,0.1-3.5,0.3
		c-3.1,0.6-6.1,2.1-8.6,4.5l-7.1,6.9l41.4,42l7.1-6.9c3.3-3.3,5-7.6,5-12C483,251.2,481.5,247.1,478.7,243.8L478.7,243.8
		L478.7,243.8z M424.5,237L303.4,356.1c-1.4,1.3-2.4,2.7-3.1,4.3c-0.7,1.4-1.2,3-1.7,4.8l0,0c-1.1,3.8-2,7.4-3,10.9
		c-2.2,8.1-4.2,15.4-6.4,22.6l0,0.1c-0.5,2.1-0.8,3-1,3.8c-1.4,5.3-2.1,8-0.2,10c2,2,4.7,1.4,10,0c0.8-0.2,1.7-0.4,3.8-0.9l0.1,0
		c7.2-2.1,14.6-3.9,22.7-6c3.5-0.9,7.2-1.8,11-2.8l0,0c1.8-0.5,3.4-1,4.8-1.7c1.6-0.8,3-1.7,4.3-3.1L465.9,279L424.5,237L424.5,237z
		 M304.7,371.5c2.3,2.3,5.3,3.5,8.4,3.5c0.2,0,0.4,0,0.6,0c0,0.2,0,0.4,0,0.6c0,3,1.1,6.1,3.4,8.4l0,0c2.3,2.3,5.3,3.5,8.4,3.5
		c0.2,0,0.4,0,0.6,0c0,0.2,0,0.4,0,0.6c0,3,1.1,6.1,3.4,8.4l0,0c0.4,0.4,0.9,0.8,1.3,1.2c-2.6,0.7-5.2,1.3-7.6,2
		c-6.8,1.7-13.1,3.3-18.9,4.9l-8-8.1c1.7-5.8,3.4-12,5.2-18.8c0.7-2.5,1.4-5,2.1-7.6C303.9,370.7,304.2,371.1,304.7,371.5
		L304.7,371.5L304.7,371.5z M252.2,44.4L252.2,44.4c-1.2-1.2-2.8-1.9-4.6-1.9c-1.8,0-3.4,0.7-4.6,1.9l0,0c-1.2,1.2-1.9,2.8-1.9,4.6
		v8.4h13.1v-8.4C254.1,47.3,253.3,45.6,252.2,44.4L252.2,44.4L252.2,44.4z M204.6,60.2h25.2V49.1c0-4.9,2-9.3,5.2-12.5v0
		c3.2-3.2,7.7-5.2,12.6-5.2c4.9,0,9.3,2,12.5,5.2v0c3.2,3.2,5.2,7.7,5.2,12.5v11.1h25.2c11.3,0,20.6,9.3,20.6,20.6v0
		c0,11.3-9.3,20.6-20.6,20.6h-85.8c-11.3,0-20.6-9.3-20.6-20.6v0C184,69.4,193.3,60.2,204.6,60.2L204.6,60.2L204.6,60.2z
		 M200.3,176.1c2.8-2.8,7.5-2.8,10.3,0c2.8,2.8,2.8,7.5,0,10.3l-27,27c-2.8,2.8-7.5,2.8-10.3,0l-11.8-11.8c-2.8-2.8-2.8-7.5,0-10.3
		c2.8-2.8,7.4-2.8,10.3,0l6.7,6.7L200.3,176.1L200.3,176.1z M327.7,192.9c4,0,7.3,3.3,7.3,7.3c0,4-3.3,7.3-7.3,7.3H225
		c-4,0-7.3-3.3-7.3-7.3c0-4,3.3-7.3,7.3-7.3H327.7L327.7,192.9z M327.7,249.8c4,0,7.3,3.3,7.3,7.3c0,4-3.3,7.3-7.3,7.3H225
		c-4,0-7.3-3.3-7.3-7.3c0-4,3.3-7.3,7.3-7.3H327.7L327.7,249.8z M200.3,233c2.8-2.8,7.5-2.8,10.3,0c2.8,2.8,2.8,7.4,0,10.3l-27,27
		c-2.8,2.8-7.5,2.8-10.3,0l-11.8-11.8c-2.8-2.8-2.8-7.5,0-10.3c2.8-2.8,7.4-2.8,10.3,0l6.7,6.7L200.3,233L200.3,233z M200.3,289.9
		c2.8-2.8,7.5-2.8,10.3,0c2.8,2.8,2.8,7.4,0,10.3l-27,27c-2.8,2.8-7.5,2.8-10.3,0l-11.8-11.8c-2.8-2.8-2.8-7.5,0-10.3
		c2.8-2.8,7.4-2.8,10.3,0l6.7,6.7L200.3,289.9L200.3,289.9z M314.1,306.7c4,0,7.3,3.3,7.3,7.3c0,4-3.3,7.3-7.3,7.3H225
		c-4,0-7.3-3.3-7.3-7.3c0-4,3.3-7.3,7.3-7.3H314.1L314.1,306.7z M278,363.6c4,0,7.3,3.3,7.3,7.3c0,4-3.3,7.3-7.3,7.3h-53
		c-4,0-7.3-3.3-7.3-7.3c0-4,3.3-7.3,7.3-7.3H278L278,363.6z M200.3,346.8c2.8-2.8,7.5-2.8,10.3,0c2.8,2.8,2.8,7.5,0,10.3l-27,27
		c-2.8,2.8-7.5,2.8-10.3,0l-11.8-11.8c-2.8-2.8-2.8-7.5,0-10.3c2.8-2.8,7.4-2.8,10.3,0l6.7,6.7L200.3,346.8L200.3,346.8z"/>
</g>
</svg>
