<?xml version="1.0" encoding="UTF-8"?>
<svg id="Capa_1" data-name="Capa 1"
  xmlns="http://www.w3.org/2000/svg" viewBox="0 0 512 512">
  <defs>
    <style>
      .cls-1 {
        fill: none;
        stroke: #0065bd;
        stroke-linecap: round;
        stroke-linejoin: round;
        stroke-width: 15px;
      }

      .cls-2 {
        fill: #fff;
        stroke-width: 0px;
      }
    </style>
  </defs>
  <rect class="cls-2" width="512" height="512" rx="50" ry="50"/>
  <g>
    <path class="cls-1" d="M220.94,247.21H64.51c-9.98,0-18.08,8.09-18.08,18.08v138.77c0,9.98,8.09,18.08,18.08,18.08h16.45l30.75,38.26c7.06,7.06,18.5,7.06,25.56,0l31.17-38.26h139.4c9.98,0,18.08-8.09,18.08-18.08v-25.62"/>
    <line class="cls-1" x1="89.67" y1="290.85" x2="203.44" y2="290.85"/>
    <line class="cls-1" x1="89.67" y1="334.72" x2="238.42" y2="334.72"/>
    <line class="cls-1" x1="89.67" y1="378.59" x2="238.42" y2="378.59"/>
    <g>
      <line class="cls-1" x1="186.2" y1="185.99" x2="220.59" y2="185.99"/>
      <line class="cls-1" x1="431.17" y1="185.99" x2="465.56" y2="185.99"/>
      <line class="cls-1" x1="325.88" y1="80.7" x2="325.88" y2="46.31"/>
      <line class="cls-1" x1="325.88" y1="80.7" x2="325.88" y2="46.31"/>
      <line class="cls-1" x1="400.33" y1="111.54" x2="424.65" y2="87.22"/>
      <line class="cls-1" x1="400.33" y1="111.54" x2="424.65" y2="87.22"/>
      <line class="cls-1" x1="251.43" y1="111.54" x2="227.11" y2="87.22"/>
      <line class="cls-1" x1="251.43" y1="111.54" x2="227.11" y2="87.22"/>
      <path class="cls-1" d="M352.13,298.53v27.33c0,9.62-7.8,17.41-17.41,17.41h-17.67c-9.62,0-17.41-7.8-17.41-17.41v-27.33"/>
      <path class="cls-1" d="M304.51,299.84c-7.72,0-13.97-6.26-13.97-13.97,0,0,.01-21.01.02-30.06,0-3.9-1.63-7.6-4.48-10.27-13.69-12.85-30.32-39.42-30.32-59.68,0-38.81,31.36-70.3,70.12-70.5h.02c38.76.21,70.12,31.69,70.12,70.5,0,20.26-16.56,46.83-30.25,59.68-2.85,2.67-4.48,6.37-4.48,10.27,0,9.04.02,30.06.02,30.06,0,7.72-6.26,13.97-13.97,13.97h-42.82Z"/>
      <circle class="cls-1" cx="325.88" cy="185.99" r="24.43"/>
      <line class="cls-1" x1="325.88" y1="211.88" x2="325.88" y2="299.29"/>
    </g>
  </g>
</svg>